<svg xmlns="http://www.w3.org/2000/svg" viewBox="0 0 176 220" fill="none">
  <rect x="12" y="18" width="152" height="186" rx="22" fill="#D7C3A0" stroke="#241C17" stroke-width="4"/>
  <rect x="34" y="36" width="108" height="22" rx="11" fill="#7E3C2F"/>
  <circle cx="88" cy="92" r="22" fill="#E5D8BD" stroke="#241C17" stroke-width="4"/>
  <path d="M58 132C64 118 74 111 88 111C102 111 112 118 118 132" stroke="#241C17" stroke-width="4" stroke-linecap="round"/>
  <path d="M68 88C73.3333 82.6667 80 80 88 80C96 80 102.667 82.6667 108 88" stroke="#241C17" stroke-width="4" stroke-linecap="round"/>
  <path d="M70 92C74.6667 97.3333 80.6667 100 88 100C95.3333 100 101.333 97.3333 106 92" stroke="#241C17" stroke-width="4" stroke-linecap="round"/>
  <path d="M124 138V186" stroke="#2A3540" stroke-width="6" stroke-linecap="round"/>
  <path d="M112 144C118.667 138.667 125.333 138.667 132 144" stroke="#241C17" stroke-width="4" stroke-linecap="round"/>
  <path d="M42 176L70 152L96 176" stroke="#A27C53" stroke-width="6" stroke-linecap="round" stroke-linejoin="round"/>
</svg>
