<svg xmlns="http://www.w3.org/2000/svg" viewBox="0 0 128 128" fill="none">
  <defs>
    <linearGradient id="paper" x1="12" y1="10" x2="108" y2="116" gradientUnits="userSpaceOnUse">
      <stop stop-color="#E5D7B6"/>
      <stop offset="1" stop-color="#C9B089"/>
    </linearGradient>
  </defs>
  <path d="M22 18H86L106 38V96L92 110H22L12 100V28L22 18Z" fill="url(#paper)"/>
  <path d="M86 18V38H106" stroke="#251D18" stroke-width="4" stroke-linejoin="round"/>
  <path d="M22 18H86L106 38V96L92 110H22L12 100V28L22 18Z" stroke="#251D18" stroke-width="4" stroke-linejoin="round"/>
  <circle cx="33" cy="32" r="5.5" fill="#251D18"/>
  <circle cx="64" cy="76" r="20" stroke="#251D18" stroke-width="4"/>
  <path d="M64 64V76L72 82" stroke="#7E3C2F" stroke-width="4" stroke-linecap="round" stroke-linejoin="round"/>
  <path d="M40 102H88" stroke="#251D18" stroke-width="4" stroke-linecap="round"/>
  <path d="M47 52C47 45.9249 51.9249 41 58 41H70C76.0751 41 81 45.9249 81 52V56H47V52Z" fill="#203142" stroke="#251D18" stroke-width="4" stroke-linejoin="round"/>
  <path d="M50 56H78V63C78 70.732 71.732 77 64 77C56.268 77 50 70.732 50 63V56Z" fill="#D8C7A4" stroke="#251D18" stroke-width="4" stroke-linejoin="round"/>
  <path d="M48 90H80" stroke="#203142" stroke-width="3" stroke-linecap="round" opacity=".8"/>
</svg>
